<svg width="24" height="24" viewBox="0 0 24 24" fill="none" xmlns="http://www.w3.org/2000/svg">
<path d="M4 6C4 5.46957 4.21071 4.96086 4.58579 4.58579C4.96086 4.21071 5.46957 4 6 4H18C18.5304 4 19.0391 4.21071 19.4142 4.58579C19.7893 4.96086 20 5.46957 20 6V18C20 18.5304 19.7893 19.0391 19.4142 19.4142C19.0391 19.7893 18.5304 20 18 20H6C5.46957 20 4.96086 19.7893 4.58579 19.4142C4.21071 19.0391 4 18.5304 4 18V6Z" stroke="white" stroke-width="2" stroke-linecap="round" stroke-linejoin="round"/>
<path d="M7 12.0556V14.9444H9.18182V20H12.0909V14.9444H14.2727L15 12.0556H12.0909V10.6111C12.0909 10.4196 12.1675 10.2359 12.3039 10.1004C12.4403 9.96498 12.6253 9.88889 12.8182 9.88889H15V7H12.8182C11.8538 7 10.9288 7.38046 10.2469 8.05767C9.56493 8.73488 9.18182 9.65338 9.18182 10.6111V12.0556H7Z" fill="white"/>
</svg>
