<svg width="1212" height="106" viewBox="0 0 1212 106" fill="none" xmlns="http://www.w3.org/2000/svg">
<path d="M33.5234 59.6311L38.4034 69.284L34.9634 62.1872C34.4834 61.2249 34.0234 60.3729 33.5234 59.6211V59.6311Z" fill="white"/>
<path d="M45.6684 84.2788C46.1484 85.2812 46.6584 86.0731 47.2184 86.7346L38.3984 69.2832L45.6684 84.2788Z" fill="white"/>
<path d="M56.8725 52.5641C54.7825 48.3742 52.4425 45.2869 49.3625 43.0616L71.7725 7.27665C73.7425 4.06903 72.5125 1.84375 68.8225 1.84375H54.6625C48.2625 1.84375 47.1525 2.58551 44.8125 6.40457L27.0825 34.4211H27.0425L23.5625 39.9141L33.5225 59.6209C34.0225 60.3727 34.4825 61.2247 34.9625 62.187L38.4025 69.2838L47.2225 86.7352C49.0825 88.9305 51.6125 89.4617 56.6325 89.4617H69.9225C73.9825 89.4617 74.8525 86.7453 73.1225 83.4174L56.8725 52.5641Z" fill="white"/>
<path d="M24.37 41.6888C24.37 39.4735 23.14 38.6816 19.2 38.6816H5.29C1.35 38.6816 0 39.4635 0 41.6888V86.455C0 88.6703 1.35 89.4622 5.29 89.4622H19.2C23.14 89.4622 24.37 88.6803 24.37 86.455V41.6888Z" fill="white"/>
<path d="M138.597 67.8702H104.987V56.0221H130.957C134.897 56.0221 136.247 54.6689 136.247 50.7195V39.6131C136.247 35.7841 134.887 34.4308 130.957 34.4308H104.987V23.4448H137.487C141.427 23.4448 142.777 22.0916 142.777 18.1422V7.03582C142.777 3.20673 141.417 1.85352 137.487 1.85352H85.9072C81.9672 1.85352 80.6172 3.20673 80.6172 7.03582V84.2792C80.6172 88.0982 81.9672 89.4615 85.9072 89.4615H138.597C142.407 89.4615 143.767 88.1082 143.767 84.2792V73.0525C143.767 69.1031 142.407 67.8702 138.597 67.8702Z" fill="white"/>
<path d="M226.364 1.85352H212.204C206.174 1.85352 204.444 2.10411 202.114 6.41434L188.574 31.5941L175.404 6.41434C173.064 2.09409 171.344 1.85352 165.184 1.85352H150.414C146.604 1.85352 146.104 4.19908 147.834 7.03582L176.144 55.5309V84.2892C176.144 88.1082 177.494 89.4715 181.434 89.4715H195.344C199.284 89.4715 200.514 88.1183 200.514 84.2892V55.5309L228.954 7.03582C230.554 4.19908 230.064 1.85352 226.374 1.85352H226.364Z" fill="white"/>
<path d="M304.758 1.85352H292.208C288.268 1.85352 287.038 3.20673 287.038 7.03582V27.2739C287.038 39.8637 288.638 45.7778 292.578 58.498H291.598C287.658 49.1157 286.668 44.4346 281.258 35.9144L261.068 4.32939C259.958 2.6053 258.728 1.86354 255.898 1.86354H241.368C237.428 1.86354 236.078 3.21675 236.078 7.04584V84.2892C236.078 88.1082 237.428 89.4715 241.368 89.4715H253.798C257.738 89.4715 259.088 88.1183 259.088 84.2892V64.1714C259.088 50.4689 257.608 44.184 255.028 32.3359H256.008C259.338 43.4422 261.428 49.236 266.838 57.7562L285.798 87.0056C286.908 88.7297 288.258 89.4715 290.848 89.4715H304.758C308.578 89.4715 309.928 88.1183 309.928 84.2892V7.03582C309.928 3.20673 308.578 1.85352 304.758 1.85352Z" fill="white"/>
<path d="M358.051 0C333.681 0 320.141 13.2013 320.141 34.552V56.7647C320.141 78.1054 333.681 91.3167 358.051 91.3167C382.421 91.3167 395.841 78.1154 395.841 56.7647V34.552C395.841 13.2013 382.301 0 358.051 0ZM371.471 57.8673C371.471 65.6458 366.541 69.7155 358.051 69.7155C349.561 69.7155 344.511 65.6458 344.511 57.8673V33.4394C344.511 25.6609 349.431 21.5912 358.051 21.5912C366.671 21.5912 371.471 25.6609 371.471 33.4394V57.8673Z" fill="white"/>
<path d="M466.493 1.85352H405.553C401.613 1.85352 400.383 3.20673 400.383 7.03582V18.1422C400.383 22.0916 401.613 23.4448 405.553 23.4448H423.893V84.2792C423.893 88.0982 425.123 89.4615 429.063 89.4615H442.973C446.913 89.4615 448.263 88.1082 448.263 84.2792V23.4448H466.483C470.423 23.4448 471.773 22.0916 471.773 18.1422V7.03582C471.773 3.20673 470.423 1.85352 466.483 1.85352H466.493Z" fill="white"/>
<path d="M537.261 67.8702H503.651V56.0221H529.621C533.561 56.0221 534.911 54.6689 534.911 50.7195V39.6131C534.911 35.7841 533.561 34.4308 529.621 34.4308H503.651V23.4448H536.151C540.091 23.4448 541.441 22.0916 541.441 18.1422V7.03582C541.441 3.20673 540.081 1.85352 536.151 1.85352H484.571C480.631 1.85352 479.281 3.20673 479.281 7.03582V84.2792C479.281 88.0982 480.631 89.4615 484.571 89.4615H537.261C541.081 89.4615 542.431 88.1082 542.431 84.2792V73.0525C542.431 69.1031 541.081 67.8702 537.261 67.8702Z" fill="white"/>
<path d="M589.931 34.4217C581.071 33.3091 573.801 32.1964 573.801 26.8938C573.801 22.5736 577.121 20.4786 585.491 20.4786C591.151 20.4786 595.581 22.2027 597.921 26.8938C599.891 30.4723 601.241 30.9635 604.571 29.48L616.881 24.1774C620.571 22.6939 621.561 20.8495 619.831 17.271C614.051 5.42287 603.701 0 585.491 0C561.981 0 548.931 11.3469 548.931 27.6356C548.931 51.5724 569.121 54.1686 583.521 56.1433C591.641 57.2559 597.921 58.6091 597.921 63.4205C597.921 68.7231 592.991 70.4572 584.751 70.4572C577.861 70.4572 573.051 68.232 570.841 63.9217C568.991 60.3432 567.271 59.9723 563.581 61.2053L552.011 65.3952C548.441 66.7484 547.331 68.4825 548.681 72.1813C553.361 85.0118 566.161 91.3067 584.501 91.3067C606.291 91.3067 622.661 81.313 622.661 63.1699C622.661 39.8446 604.191 36.3964 589.911 34.4217H589.931Z" fill="white"/>
<path d="M0 13.9121C0 7.24632 5.46 1.85352 12.19 1.85352C18.92 1.85352 24.38 7.25634 24.38 13.9121C24.38 20.5679 18.92 25.9708 12.19 25.9708C5.46 25.9708 0 20.5679 0 13.9121Z" fill="#17FAA3"/>
<path d="M1050 81.1934H1004C1004 94.475 1014.3 105.25 1027 105.25C1039.7 105.25 1050 94.475 1050 81.1934Z" fill="#17FAA3"/>
<path d="M737.384 26.0625C748.647 26.0625 755.049 30.1901 759.417 39.1202C759.832 39.8731 759.585 40.3014 758.911 40.548L757.226 41.3008C756.553 41.5475 756.306 41.5474 755.879 40.7946C752.094 33.3052 746.793 29.7618 737.384 29.7618C726.537 29.7618 720.225 34.4734 720.225 42.5599C720.225 52.5024 729.556 54.099 739.056 55.1114C749.321 56.2926 760 58.0578 760 71.0247C760 81.9797 752.431 88.21 737.799 88.21C726.031 88.21 719.214 83.4983 715.183 73.4649C714.846 72.6212 714.937 72.2837 715.767 71.9462L717.361 71.3622C718.112 71.1155 718.372 71.1934 718.786 72.0371C722.402 80.5389 728.377 84.4978 737.786 84.4978C749.891 84.4978 756.112 80.1236 756.112 71.1934C756.112 61.2509 747.364 59.9918 738.201 58.9015C727.69 57.6425 716.259 55.8642 716.259 42.8195C716.259 32.5394 724.074 26.0625 737.371 26.0625" fill="white"/>
<path d="M807 28.1613V29.689C807 30.4463 806.751 30.7075 805.899 30.7075H787.452V86.1104C787.452 86.9591 787.203 87.2072 786.43 87.2072H784.648C783.797 87.2072 783.548 86.9591 783.548 86.1104V30.7075H765.101C764.249 30.7075 764 30.4463 764 29.689V28.1613C764 27.3125 764.262 27.0645 765.101 27.0645H805.899C806.751 27.0645 807 27.3125 807 28.1613Z" fill="white"/>
<path d="M816.128 27.0645H817.953C818.732 27.0645 819 27.3126 819 28.1613V86.1104C819 86.9591 818.745 87.2072 817.953 87.2072H816.128C815.255 87.2072 815 86.9591 815 86.1104V28.1613C815 27.3126 815.255 27.0645 816.128 27.0645Z" fill="white"/>
<path d="M876 58.0578V67.9095C876 80.2014 868.137 88.21 853.584 88.21C839.031 88.21 831 80.2144 831 67.3254V46.7783C831 33.9802 838.696 26.0625 853.494 26.0625C866.461 26.0625 872.649 31.1117 875.484 40.7168C875.729 41.5604 875.484 41.8071 874.737 42.1445L873.229 42.6507C872.481 42.8974 872.056 42.7416 871.811 41.9758C869.297 33.6427 864.373 29.6839 853.494 29.6839C841.029 29.6839 834.841 36.083 834.841 46.7005V67.3384C834.841 78.1247 841.364 84.6016 853.571 84.6016C865.778 84.6016 872.223 78.1117 872.223 67.9225V60.5889H854.319C853.481 60.5889 853.236 60.2514 853.236 59.4986V57.9799C853.236 57.2271 853.481 56.8896 854.319 56.8896H874.891C875.729 56.8896 875.974 57.2271 875.974 58.0708" fill="white"/>
<path d="M941 28.1741V86.1106C941 86.9592 940.749 87.2072 939.971 87.2072H938.257C937.492 87.2072 937.229 86.9592 937.229 86.1106V47.2339C937.229 42.8345 937.4 38.0826 937.822 33.0826H937.651C935.514 37.4821 933.549 41.2157 931.229 45.1974L915.998 71.9594C915.655 72.6382 915.312 72.8079 914.626 72.8079H913.519C912.754 72.8079 912.411 72.7166 912.068 71.9594L896.574 44.8579C894.345 41.046 892.473 37.4037 890.415 33.0826H890.244C890.587 38.0826 890.758 42.6517 890.758 47.2339V86.1106C890.758 86.9592 890.495 87.2072 889.651 87.2072H888.108C887.251 87.2072 887 86.9592 887 86.1106V28.1741C887 27.3255 887.251 27.0775 888.108 27.0775H889.479C890.415 27.0775 890.679 27.3255 891.101 28.0044L914.033 68.0691L936.793 28.0827C937.215 27.3255 937.479 27.0645 938.336 27.0645H939.958C940.723 27.0645 940.987 27.3125 940.987 28.161" fill="white"/>
<path d="M973.992 30.9279H973.742C973.742 31.3428 973.65 32.8596 973.06 34.545L960.967 64.4025H986.951L974.858 34.545C974.267 32.8596 974.097 31.3428 974.005 30.9279M999.043 87.2072H997.507C996.233 87.2072 995.8 87.0387 995.629 86.2867L988.054 67.6955H959.772L952.275 86.2867C952.026 87.0387 951.593 87.2072 950.319 87.2072H948.875C948.021 87.2072 947.851 86.7923 948.113 86.196L971.707 28.0757C972.049 27.3237 972.39 27.0645 973.151 27.0645H974.858C975.62 27.0645 976.053 27.3108 976.303 28.0757L999.897 86.196C1000.15 86.7794 999.975 87.2072 999.043 87.2072Z" fill="white"/>
<path d="M1098.33 30.6153V38.2392C1098.33 40.9546 1097.41 41.8815 1094.72 41.8815H1072.6V49.414H1090.28C1092.97 49.414 1093.88 50.3409 1093.88 52.9779V60.6018C1093.88 63.3172 1092.97 64.2441 1090.28 64.2441H1072.6V72.3771H1095.47C1098.07 72.3771 1099 73.2257 1099 75.941V83.6433C1099 86.2673 1098.08 87.2072 1095.47 87.2072H1059.6C1056.92 87.2072 1056 86.2803 1056 83.6433V30.6153C1056 27.9913 1056.92 27.0645 1059.6 27.0645H1094.72C1097.41 27.0645 1098.33 27.9913 1098.33 30.6153Z" fill="white"/>
<path d="M1131.31 41.8815H1122.38V53.0563H1131.31C1134.78 53.0563 1136.76 50.85 1136.76 47.3775C1136.76 43.9049 1134.86 41.8684 1131.31 41.8684M1153.7 47.4689C1153.7 55.7716 1150.39 61.6984 1144.77 64.9229C1145.6 66.0195 1146.34 67.2075 1147 68.5652L1154.44 83.0428C1155.6 85.3273 1155.01 87.1941 1152.28 87.1941H1143.36C1138.97 87.1941 1137.08 86.0975 1135.75 83.1341L1130.47 71.5286C1129.07 68.6435 1127.65 67.2075 1124.26 67.2075H1122.37V83.6433C1122.37 86.2673 1121.54 87.2072 1118.89 87.2072H1109.55C1106.9 87.2072 1106 86.2803 1106 83.6433V30.6153C1106 27.9913 1106.9 27.0645 1109.55 27.0645H1133.1C1145.58 27.0645 1153.68 34.3489 1153.68 47.4819" fill="white"/>
<path d="M1186.04 40.7517C1180.12 40.7517 1176.73 43.5213 1176.73 48.8146V65.445C1176.73 70.7383 1180.12 73.5079 1186.04 73.5079C1191.96 73.5079 1195.25 70.7383 1195.25 65.445V48.8146C1195.25 43.5213 1191.88 40.7517 1186.04 40.7517ZM1186.04 26.0625C1202.69 26.0625 1212 35.0443 1212 49.5781V64.6944C1212 79.2153 1202.69 88.21 1186.04 88.21C1169.38 88.21 1160 79.2283 1160 64.6944V49.5781C1160 35.0572 1169.31 26.0625 1186.04 26.0625Z" fill="white"/>
<path d="M1046.52 71.6402H1025.65L1034.9 58.5541L1048.51 39.2297C1049.26 38.1403 1049.58 37.1417 1049.58 35.5594V30.5662C1049.58 27.9853 1048.76 27.0645 1046.11 27.0645H1038.18L1004.45 75.3235C1004.15 75.9979 1004 76.7501 1004 77.6191V82.7031C1004 85.284 1004.91 86.2048 1007.46 86.2048H1046.54C1049.18 86.2048 1050 85.284 1050 82.7031V75.116C1050 72.4443 1049.18 71.6143 1046.54 71.6143" fill="white"/>
<path d="M1003 34.0811C1003 30.2107 1006.36 27.0645 1010.5 27.0645C1014.64 27.0645 1018 30.2107 1018 34.0811C1018 37.9515 1014.64 41.0978 1010.5 41.0978C1006.36 41.0978 1003 37.9515 1003 34.0811Z" fill="white"/>
<path d="M663.109 61.8088C664.431 60.8992 665.922 60.4445 667.594 60.4445C669.383 60.4445 670.978 60.9382 672.352 61.9257C673.726 62.9133 674.815 64.3946 675.593 66.3696C676.383 68.3447 676.772 70.7615 676.772 73.6201C676.772 76.4788 676.293 78.7916 675.32 80.7797C674.348 82.7677 673.052 84.249 671.418 85.2495C669.785 86.2501 667.97 86.7568 665.987 86.7568C664.807 86.7568 663.667 86.51 662.539 86.0292C661.424 85.5484 660.452 84.8467 659.609 83.9112L656.161 86.8478L655.357 86.497C655.578 85.7043 655.681 84.7818 655.681 83.7033V53.9606C655.681 52.4663 655.409 51.3748 654.865 50.7121C654.32 50.0364 653.361 49.7116 652 49.7116V48.6981C653.024 48.789 654.022 48.841 654.994 48.841C657.069 48.841 658.741 48.6201 660.024 48.1523V65.6549C660.75 64.0177 661.774 62.7443 663.096 61.8348L663.109 61.8088ZM662.63 85.0157C663.602 85.4185 664.587 85.6264 665.611 85.6264C667.776 85.6264 669.396 84.6388 670.472 82.6768C671.548 80.7147 672.08 77.6872 672.08 73.6071C672.08 69.5271 671.6 66.7204 670.628 64.7844C669.656 62.8483 668.178 61.8738 666.181 61.8738C665.313 61.8738 664.47 62.1077 663.654 62.5754C662.837 63.0432 662.111 63.7319 661.476 64.6284C660.841 65.538 660.361 66.6295 660.05 67.9029V83.2095C660.802 84.0021 661.67 84.5999 662.63 85.0027V85.0157Z" fill="white" fill-opacity="0.5"/>
<path d="M698.815 61.2504C700.241 61.2504 701.473 61.1984 702.497 61.1074V62.082C701.849 62.1599 701.278 62.4588 700.773 62.9525C700.267 63.4593 699.801 64.3039 699.36 65.4863L691.427 86.3023L689.78 90.5123C689.171 92.0976 688.471 93.241 687.706 93.9167C686.799 94.7483 685.541 95.1641 683.934 95.1641C682.975 95.1641 682.184 94.9042 681.575 94.3974C680.965 93.8907 680.654 93.176 680.654 92.2535C680.654 91.4739 680.888 90.8632 681.341 90.3954C681.795 89.9276 682.43 89.6937 683.234 89.6937C683.947 89.6937 684.53 89.8886 684.997 90.2784C685.464 90.6682 685.697 91.227 685.697 91.9546C685.697 92.9162 685.269 93.6438 684.401 94.1246C684.465 94.1506 684.556 94.1765 684.686 94.1765C686.462 94.1765 687.836 92.9162 688.795 90.3954L690.519 85.9775L681.743 64.8366C681.199 63.7192 680.641 62.9785 680.11 62.6407C679.565 62.2899 679.021 62.1209 678.477 62.1209V61.1074C679.98 61.3153 681.562 61.4193 683.221 61.4193C684.608 61.4193 686.695 61.3153 689.495 61.1074V62.1209C688.704 62.1209 688.095 62.1469 687.654 62.1989C687.214 62.2509 686.851 62.4068 686.552 62.6537C686.267 62.9006 686.112 63.2774 686.112 63.7971C686.112 64.3819 686.319 65.1745 686.721 66.188L692.554 80.663L697.882 66.6428C698.232 65.6942 698.401 64.9536 698.401 64.4208C698.401 63.6672 698.115 63.1085 697.545 62.7446C696.975 62.3808 696.054 62.1599 694.797 62.082V61.1074C696.495 61.1984 697.856 61.2504 698.854 61.2504H698.815Z" fill="white" fill-opacity="0.5"/>
</svg>
