<svg width="26" height="26" viewBox="0 0 26 26" fill="none" xmlns="http://www.w3.org/2000/svg">
<g clip-path="url(#clip0_247_4)">
<path d="M22.864 1.69727H16.614C15.3201 1.69727 14.2703 2.74707 14.2703 4.04102V10.291C14.2703 11.585 15.3201 12.6348 16.614 12.6348H20.5203V15.7598C20.5203 17.4834 19.1189 18.8848 17.3953 18.8848H17.0046C16.3552 18.8848 15.8328 19.4072 15.8328 20.0566V22.4004C15.8328 23.0498 16.3552 23.5723 17.0046 23.5723H17.3953C21.7117 23.5723 25.2078 20.0762 25.2078 15.7598V4.04102C25.2078 2.74707 24.158 1.69727 22.864 1.69727ZM8.80151 1.69727H2.55151C1.25757 1.69727 0.207764 2.74707 0.207764 4.04102V10.291C0.207764 11.585 1.25757 12.6348 2.55151 12.6348H6.45776V15.7598C6.45776 17.4834 5.0564 18.8848 3.33276 18.8848H2.94214C2.29272 18.8848 1.77026 19.4072 1.77026 20.0566V22.4004C1.77026 23.0498 2.29272 23.5723 2.94214 23.5723H3.33276C7.64917 23.5723 11.1453 20.0762 11.1453 15.7598V4.04102C11.1453 2.74707 10.0955 1.69727 8.80151 1.69727Z" fill="#80F3FF"/>
</g>
<defs>
<clipPath id="clip0_247_4">
<rect width="25" height="25" fill="white" transform="translate(0.207764 0.134766)"/>
</clipPath>
</defs>
</svg>
